# xmcd CD database file
#
# Track frame offsets:
#	150
#	25160
#	42600
#	78967
#
# Disc length: 1150 seconds
#
# Revision: 0
# Processed by: cddbd v1.5PL3 Copyright (c) Steve Scherf et al.
# Submitted via: CDex 1.51
#
DISCID=28047c04
DTITLE=松田樹利亜 - 永遠という瞬間の中で
DYEAR=1998
DGENRE=JPop
TTITLE0=永遠という瞬間の中で
TTITLE1=白い花 赤い花
TTITLE2=永遠という瞬間の中で [Original Karaoke]
TTITLE3=CD-EXTRA
EXTD=YEAR: 1998
EXTT0=
EXTT1=
EXTT2=
EXTT3=
PLAYORDER=
